<svg xmlns="http://www.w3.org/2000/svg" xmlns:xlink="http://www.w3.org/1999/xlink" viewBox="0 0 1075.991 253.924"><defs><clipPath id="clip-path" transform="translate(-0.001 0)"><rect width="1103.624" height="253.924" style="fill:none"/></clipPath></defs><g id="Layer_2" data-name="Layer 2"><g id="Layer_1-2" data-name="Layer 1"><g style="clip-path:url(#clip-path)"><ellipse cx="265.286" cy="229.375" rx="19.77" ry="19.85" style="fill:none;stroke:#5e5f5f;stroke-width:6.5980000495910645px"/><ellipse cx="837.981" cy="229.375" rx="19.77" ry="19.85" style="fill:none;stroke:#5e5f5f;stroke-width:6.5980000495910645px"/><ellipse cx="766.395" cy="229.375" rx="19.77" ry="19.85" style="fill:none;stroke:#5e5f5f;stroke-width:6.5980000495910645px"/><ellipse cx="694.808" cy="230.775" rx="19.77" ry="19.85" style="fill:none;stroke:#5e5f5f;stroke-width:6.5980000495910645px"/><ellipse cx="336.873" cy="229.375" rx="19.77" ry="19.85" style="fill:none;stroke:#5e5f5f;stroke-width:6.5980000495910645px"/><ellipse cx="909.568" cy="229.375" rx="19.77" ry="19.85" style="fill:none;stroke:#5e5f5f;stroke-width:6.5980000495910645px"/><ellipse cx="408.46" cy="229.375" rx="19.77" ry="19.85" style="fill:none;stroke:#5e5f5f;stroke-width:6.5980000495910645px"/><ellipse cx="981.155" cy="229.375" rx="19.77" ry="19.85" style="fill:none;stroke:#5e5f5f;stroke-width:6.5980000495910645px"/><ellipse cx="480.047" cy="229.375" rx="19.77" ry="19.85" style="fill:none;stroke:#5e5f5f;stroke-width:6.5980000495910645px"/><ellipse cx="1052.742" cy="229.375" rx="19.77" ry="19.85" style="fill:none;stroke:#5e5f5f;stroke-width:6.5980000495910645px"/><ellipse cx="551.634" cy="229.375" rx="19.77" ry="19.85" style="fill:none;stroke:#5e5f5f;stroke-width:6.5980000495910645px"/><ellipse cx="623.221" cy="229.375" rx="19.77" ry="19.85" style="fill:none;stroke:#5e5f5f;stroke-width:6.5980000495910645px"/></g><path d="M66.292,123.272c0-34.088,24.742-61.213,61.763-61.213,14.112,0,26.575,4.032,36.655,11.18l-9.9,14.845a41.622,41.622,0,0,0-26.757-9.347c-26.025,0-42.336,20.527-42.336,44.535s16.311,44.719,42.336,44.719a41.617,41.617,0,0,0,26.757-9.348l9.9,14.846c-10.08,7.148-22.543,11.18-36.655,11.18C91.034,184.669,66.292,157.544,66.292,123.272Z" transform="translate(-0.001 0)" style="fill:#f4a934"/><path d="M181.575,71.773a11.455,11.455,0,1,1,11.362,11.363A11.383,11.383,0,0,1,181.575,71.773Zm2.749,27.307h17.594v83.206H184.324Z" transform="translate(-0.001 0)" style="fill:#f4a934"/><path d="M278.526,99.63l-5.314,15.212a19.222,19.222,0,0,0-8.065-1.649c-13.195,0-20.342,12.1-20.342,25.657v43.436H227.21V99.08h15.395l2.016,11c4.948-8.43,11.546-13.195,21.26-13.195C271.379,96.881,276.327,98.347,278.526,99.63Z" transform="translate(-0.001 0)" style="fill:#f4a934"/><path d="M283.96,140.682c0-24.558,17.961-43.8,43.8-43.8a45.734,45.734,0,0,1,28.59,9.347L346.09,119.056a25.845,25.845,0,0,0-17.961-6.963c-16.312,0-26.025,12.279-26.025,28.589s9.713,28.775,26.025,28.775a25.842,25.842,0,0,0,17.961-6.965l10.263,12.829a45.729,45.729,0,0,1-28.59,9.348C301.921,184.669,283.96,165.425,283.96,140.682Z" transform="translate(-0.001 0)" style="fill:#f4a934"/><path d="M372.116,57.66H389.71V182.286H372.116Z" transform="translate(-0.001 0)" style="fill:#f4a934"/><path d="M492.71,144.532H427.648c1.283,14.845,10.63,25.658,26.208,25.658,9.347,0,16.494-3.116,21.81-9.164l12.279,9.9c-7.515,8.43-19.61,13.379-33.9,13.379-27.309,0-45.086-19.06-45.086-43.62s17.961-43.8,42.886-43.8c24.192,0,40.87,17.228,40.87,41.969Zm-64.329-12.279h46.735c-1.833-13.2-10.264-21.077-23.276-21.077C439.56,111.176,430.947,119.606,428.381,132.253Z" transform="translate(-0.001 0)" style="fill:#f4a934"/><path d="M515.622,159.56c6.231,7.881,13.562,10.813,21.809,10.813,10.264,0,15.579-4.215,15.579-10.446,0-16.128-43.436-6.964-43.436-37.2,0-15.395,12.279-25.841,31.89-25.841,12.462,0,22.909,4.948,28.591,10.814l-9.9,11.179c-4.765-4.765-11.729-7.7-17.961-7.514-9.529.183-14.3,4.4-14.3,10.629,0,17.961,43.986,8.065,43.986,37.571,0,15.029-12.83,25.109-33.172,25.109-15.762,0-28.225-5.865-34.273-14.113Z" transform="translate(-0.001 0)" style="fill:#f4a934"/><path d="M735.831,64.992,688,182.286H672.052L624.218,64.992h20.526l35.372,94.019,35.189-94.019Z" transform="translate(-0.001 0)" style="fill:#5e5e5e"/><path d="M745.547,71.773A11.455,11.455,0,1,1,756.91,83.136,11.384,11.384,0,0,1,745.547,71.773ZM748.3,99.08H765.89v83.206H748.3Z" transform="translate(-0.001 0)" style="fill:#5e5e5e"/><path d="M870.355,57.66V182.286H855.877l-2.2-10.814c-6.415,7.881-15.762,12.83-28.224,12.83-21.627,0-38.855-16.5-38.855-43.62s17.228-43.8,38.855-43.8c11.729,0,20.71,4.4,27.124,11.546V57.66Zm-14.844,83.022c0-16.31-10.264-28.773-25.659-28.773-15.028,0-25.108,12.463-25.108,28.773s10.08,28.591,25.108,28.591C845.247,169.273,855.511,156.994,855.511,140.682Z" transform="translate(-0.001 0)" style="fill:#5e5e5e"/><path d="M972.624,144.532H907.561c1.284,14.845,10.63,25.658,26.208,25.658,9.348,0,16.5-3.116,21.81-9.164l12.279,9.9c-7.513,8.43-19.61,13.379-33.9,13.379-27.308,0-45.085-19.06-45.085-43.62s17.961-43.8,42.886-43.8c24.192,0,40.87,17.228,40.87,41.969ZM908.3,132.253h46.734c-1.832-13.2-10.263-21.077-23.275-21.077C919.474,111.176,910.86,119.606,908.3,132.253Z" transform="translate(-0.001 0)" style="fill:#5e5e5e"/><path d="M986.738,140.682c0-24.558,18.144-43.8,44.719-43.8,26.208,0,44.535,19.243,44.535,43.8,0,24.743-18.327,43.987-44.535,43.987C1004.882,184.669,986.738,165.425,986.738,140.682Zm70.743,0c0-16.128-10.813-28.589-26.024-28.589-15.4,0-26.208,12.461-26.208,28.589,0,16.312,10.812,28.775,26.208,28.775C1046.668,169.457,1057.481,156.994,1057.481,140.682Z" transform="translate(-0.001 0)" style="fill:#5e5e5e"/><g style="clip-path:url(#clip-path)"><path d="M126.251,246.818C60.274,246.818,6.6,192.936,6.6,126.708S60.274,6.6,126.251,6.6a119,119,0,0,1,82.7,33.395h9.258A125.707,125.707,0,0,0,126.251,0C56.636,0,0,56.84,0,126.708s56.635,126.708,126.25,126.708a126.029,126.029,0,0,0,102.438-52.734h-8.235a119.349,119.349,0,0,1-94.2,46.136" transform="translate(-0.001 0)" style="fill:#5c5c5d"/></g></g></g></svg>