<?xml version="1.0" encoding="utf-8"?>
<!-- Generator: Adobe Illustrator 24.2.1, SVG Export Plug-In . SVG Version: 6.00 Build 0)  -->
<svg version="1.1" id="Layer_1" xmlns="http://www.w3.org/2000/svg" xmlns:xlink="http://www.w3.org/1999/xlink" x="0px" y="0px"
	 viewBox="0 0 1311 295" style="enable-background:new 0 0 1311 295;" xml:space="preserve">
<style type="text/css">
	.st0{fill:#EC7D47;}
	.st1{fill:#5781CD;}
</style>
<g>
	<path class="st0" d="M125.1,273.3c-15,0-28.8-2.1-41.6-6.3c-12.8-4.2-24-10.5-33.5-18.8c-9.5-8.4-17-18.9-22.4-31.6
		c-5.5-12.7-8.2-27.5-8.2-44.5c0-16.7,2.7-31.1,8.2-43.2C33,116.9,40.2,107,49,99.3c8.9-7.7,19-13.4,30.4-17.1
		c11.4-3.7,23.1-5.5,35-5.5c13.4,0,25.7,2,36.7,6.1c11,4.1,20.5,9.6,28.5,16.7c8,7.1,14.2,15.6,18.6,25.5c4.4,9.9,6.7,20.7,6.7,32.3
		c0,8.6-2.4,15.2-7.2,19.8c-4.8,4.6-11.5,7.5-20.2,8.7l-93.9,14.1c2.8,8.4,8.5,14.6,17.1,18.8c8.6,4.2,18.5,6.3,29.7,6.3
		c10.4,0,20.2-1.3,29.5-4c9.3-2.7,16.8-5.8,22.6-9.3c4.1,2.5,7.5,6.1,10.3,10.6c2.8,4.6,4.2,9.4,4.2,14.4c0,11.4-5.3,19.9-16,25.5
		c-8.1,4.3-17.2,7.2-27.4,8.7C143.5,272.5,134,273.3,125.1,273.3z M114.4,123.8c-6.1,0-11.3,1-15.8,3c-4.4,2-8.1,4.6-10.8,7.8
		c-2.8,3.2-4.9,6.7-6.3,10.6c-1.4,3.9-2.2,7.9-2.5,12l65-10.6c-0.8-5.1-3.6-10.1-8.4-15.2C130.9,126.4,123.8,123.8,114.4,123.8z"/>
	<path class="st0" d="M353.2,150.1c0-7.9-2.2-13.6-6.7-17.3c-4.4-3.7-10.5-5.5-18.1-5.5c-5.1,0-10.1,0.6-15,1.9
		c-4.9,1.3-9.2,3.2-12.7,5.7v131.9c-2.5,0.8-6.5,1.5-12,2.3c-5.5,0.8-11.1,1.1-16.9,1.1c-5.6,0-10.6-0.4-15-1.1
		c-4.4-0.8-8.2-2.3-11.2-4.6c-3-2.3-5.4-5.4-7-9.3c-1.7-3.9-2.5-9.1-2.5-15.4V125.7c0-6.8,1.5-12.4,4.4-16.7
		c2.9-4.3,6.9-8.2,12-11.8c8.6-6.1,19.5-11,32.5-14.8c13.1-3.8,27.6-5.7,43.5-5.7c28.6,0,50.7,6.3,66.2,18.8
		c15.5,12.5,23.2,30,23.2,52.3v119c-2.5,0.8-6.5,1.5-12,2.3c-5.5,0.8-11.1,1.1-16.9,1.1c-5.6,0-10.6-0.4-15-1.1
		c-4.4-0.8-8.2-2.3-11.2-4.6c-3-2.3-5.4-5.4-7-9.3c-1.7-3.9-2.5-9.1-2.5-15.4V150.1z"/>
</g>
<g>
	<path class="st1" d="M576.4,262.2c-3.6,2.8-8.7,5.1-15.6,6.8c-6.8,1.8-14.6,2.7-23.2,2.7c-9.9,0-18.4-1.3-25.7-3.8
		c-7.2-2.5-12.2-6.6-15-12.2c-2.3-4.3-5-10.3-8.2-18.1c-3.2-7.7-6.5-16.4-10.1-25.9c-3.6-9.5-7.2-19.7-11-30.6
		c-3.8-10.9-7.4-21.7-10.8-32.3c-3.4-10.6-6.5-20.9-9.3-30.8c-2.8-9.9-5.1-18.6-6.8-26.2c3.5-3.5,8.3-6.7,14.3-9.3
		c6-2.7,12.5-4,19.6-4c8.9,0,16.2,1.8,21.9,5.5c5.7,3.7,9.9,10.6,12.7,20.7L524,163c2.8,11.4,5.4,21.7,8,31
		c2.5,9.3,4.4,16.4,5.7,21.5h1.9c4.8-18.8,9.9-39.5,15.2-62.4c5.3-22.8,10.1-45.2,14.4-67.3c4.3-2.3,9.2-4.1,14.6-5.3
		c5.4-1.3,10.7-1.9,15.8-1.9c8.9,0,16.4,1.9,22.4,5.7s9.1,10.4,9.1,19.8c0,4.1-1,10-2.9,17.7c-1.9,7.7-4.3,16.5-7.2,26.2
		c-2.9,9.8-6.3,20.1-10.3,31c-3.9,10.9-7.9,21.5-12,31.9c-4.1,10.4-8.1,20.1-12,29.1C583,249,579.5,256.4,576.4,262.2z"/>
	<path class="st1" d="M849.5,174.8c0,15.7-2.4,29.7-7.2,42c-4.8,12.3-11.6,22.6-20.3,31c-8.7,8.4-19.2,14.7-31.4,19
		c-12.2,4.3-25.7,6.5-40.7,6.5c-15,0-28.5-2.3-40.7-6.8c-12.2-4.6-22.6-11.1-31.4-19.6c-8.7-8.5-15.5-18.8-20.3-31
		c-4.8-12.2-7.2-25.9-7.2-41.1c0-15,2.4-28.5,7.2-40.7c4.8-12.2,11.6-22.5,20.3-31c8.7-8.5,19.2-15,31.4-19.6
		c12.2-4.6,25.7-6.8,40.7-6.8c15,0,28.5,2.3,40.7,7c12.2,4.7,22.6,11.3,31.4,19.8c8.7,8.5,15.5,18.8,20.3,31
		C847,146.6,849.5,160.1,849.5,174.8z M716.4,174.8c0,15.5,3,27.3,8.9,35.6c6,8.2,14.3,12.4,24.9,12.4c10.6,0,18.8-4.2,24.5-12.5
		c5.7-8.4,8.6-20.2,8.6-35.4c0-15.2-2.9-26.9-8.7-35.2c-5.8-8.2-14.1-12.4-24.7-12.4c-10.6,0-18.9,4.1-24.7,12.4
		C719.3,147.9,716.4,159.6,716.4,174.8z"/>
	<path class="st1" d="M946.8,266.8c-2.8,0.5-6.9,1.2-12.4,2.1c-5.5,0.9-11,1.3-16.5,1.3c-5.6,0-10.6-0.4-15-1.1
		c-4.4-0.8-8.2-2.3-11.2-4.6c-3-2.3-5.4-5.4-7-9.3c-1.7-3.9-2.5-9.1-2.5-15.4V19.3c2.8-0.5,6.9-1.2,12.4-2.1
		c5.4-0.9,11-1.3,16.5-1.3c5.6,0,10.6,0.4,15,1.1c4.4,0.8,8.2,2.3,11.2,4.6c3,2.3,5.4,5.4,7,9.3c1.6,3.9,2.5,9.1,2.5,15.4V266.8z"/>
	<path class="st1" d="M1053.3,266.8c-2.8,0.5-6.9,1.2-12.4,2.1c-5.5,0.9-11,1.3-16.5,1.3c-5.6,0-10.6-0.4-15-1.1
		c-4.4-0.8-8.2-2.3-11.2-4.6c-3-2.3-5.4-5.4-7-9.3c-1.7-3.9-2.5-9.1-2.5-15.4V19.3c2.8-0.5,6.9-1.2,12.4-2.1
		c5.4-0.9,11-1.3,16.5-1.3c5.6,0,10.6,0.4,15,1.1c4.4,0.8,8.2,2.3,11.2,4.6c3,2.3,5.4,5.4,7,9.3c1.6,3.9,2.5,9.1,2.5,15.4V266.8z"/>
	<path class="st1" d="M1285.2,174.8c0,15.7-2.4,29.7-7.2,42c-4.8,12.3-11.6,22.6-20.3,31c-8.7,8.4-19.2,14.7-31.4,19
		c-12.2,4.3-25.7,6.5-40.7,6.5c-15,0-28.5-2.3-40.7-6.8c-12.2-4.6-22.6-11.1-31.4-19.6c-8.7-8.5-15.5-18.8-20.3-31
		c-4.8-12.2-7.2-25.9-7.2-41.1c0-15,2.4-28.5,7.2-40.7c4.8-12.2,11.6-22.5,20.3-31c8.7-8.5,19.2-15,31.4-19.6
		c12.2-4.6,25.7-6.8,40.7-6.8c15,0,28.5,2.3,40.7,7c12.2,4.7,22.6,11.3,31.4,19.8c8.7,8.5,15.5,18.8,20.3,31
		C1282.8,146.6,1285.2,160.1,1285.2,174.8z M1152.1,174.8c0,15.5,3,27.3,8.9,35.6c6,8.2,14.3,12.4,24.9,12.4
		c10.6,0,18.8-4.2,24.5-12.5c5.7-8.4,8.6-20.2,8.6-35.4c0-15.2-2.9-26.9-8.7-35.2c-5.8-8.2-14.1-12.4-24.7-12.4
		c-10.6,0-18.9,4.1-24.7,12.4C1155,147.9,1152.1,159.6,1152.1,174.8z"/>
</g>
</svg>
